<svg xmlns="http://www.w3.org/2000/svg" version="1.1" width="1000" height="1000">
    <g clip-path="url(#SvgjsClipPath1305)">
        <rect width="1000" height="1000" fill="#000000"></rect>
        <g transform="matrix(9.782608695652174,0,0,9.782608695652174,50,284.7826086956522)">
            <svg xmlns="http://www.w3.org/2000/svg" version="1.1"
                 width="92" height="44">
                <svg width="92" height="44" viewBox="0 0 92 44" fill="none" xmlns="http://www.w3.org/2000/svg">
                    <path d="M24.1277 26.3596H10.5895L8.40161 31.9179H0L13.4507 0.493075H21.8523L34.9865 31.9179H26.2752L24.1277 26.3596ZM21.7176 20.0855L17.4293 8.88113L13.0535 20.0855H21.7244H21.7176Z"
                          fill="white"></path>
                    <path d="M51.8298 6.94952C47.0029 6.94952 43.3407 10.8464 43.3407 16.0467C43.3407 21.247 47.0029 25.1439 51.8298 25.1439C54.4216 25.1439 57.4174 23.7121 59.6053 21.4699L64.3851 26.623C61.0325 30.1619 56.0306 32.4919 51.3855 32.4919C41.9606 32.4919 34.9458 25.4546 34.9458 16.1278C34.9458 6.80094 42.1356 0 51.6951 0C56.3403 0 61.2143 2.10714 64.3379 5.42319L59.5986 11.1638C57.5453 8.56365 54.5495 6.94952 51.823 6.94952H51.8298Z"
                          fill="white"></path>
                    <path d="M92 0.493225V7.2604H82.6155V31.9113H74.4361V7.2604H65.1391V0.493225H92Z"
                          fill="white"></path>
                    <path d="M4.26852 37.1518C2.54512 37.1518 1.17178 38.5228 1.17178 40.2382C1.17178 41.9536 2.54512 43.3246 4.26852 43.3246C5.08983 43.3246 5.88422 42.9869 6.48337 42.4331L6.92095 42.9059C6.20736 43.5677 5.23121 44 4.23486 44C2.12773 44 0.437981 42.3251 0.437981 40.2449C0.437981 38.1648 2.13446 36.5169 4.25506 36.5169C5.2514 36.5169 6.21409 36.9154 6.90749 37.5705L6.47664 38.077C5.89095 37.4962 5.08983 37.1585 4.26179 37.1585L4.26852 37.1518Z"
                          fill="white"></path>
                    <path d="M15.2615 40.2382C15.2615 42.3251 13.565 43.9932 11.431 43.9932C9.29691 43.9932 7.60043 42.3183 7.60043 40.2382C7.60043 38.158 9.29691 36.5101 11.431 36.5101C13.565 36.5101 15.2615 38.1648 15.2615 40.2382ZM8.34096 40.2382C8.34096 41.9536 9.74796 43.3449 11.4444 43.3449C13.1409 43.3449 14.5277 41.9536 14.5277 40.2382C14.5277 38.5227 13.1342 37.1652 11.4444 37.1652C9.75469 37.1652 8.34096 38.5362 8.34096 40.2382Z"
                          fill="white"></path>
                    <path d="M17.5778 36.5709V43.2706H20.8091V43.9257H16.8574V36.5709H17.5845H17.5778Z"
                          fill="white"></path>
                    <path d="M22.9626 36.5713V43.2709H26.194V43.926H22.2423V36.5713H22.9693H22.9626Z"
                          fill="white"></path>
                    <path d="M32.5298 36.571V37.2261H28.3424V39.86H32.0854V40.5151H28.3424V43.2841H32.6644V43.9392H27.6221V36.5845H32.5298V36.571Z"
                          fill="white"></path>
                    <path d="M39.5853 40.3327H40.2248V43.0274C39.5247 43.615 38.5283 43.9932 37.5387 43.9932C35.4181 43.9932 33.7216 42.3183 33.7216 40.2382C33.7216 38.158 35.4316 36.5101 37.5724 36.5101C38.5822 36.5101 39.5449 36.8883 40.245 37.5097L39.8276 38.023C39.2285 37.4624 38.4139 37.1517 37.5724 37.1517C35.8422 37.1517 34.4554 38.5295 34.4554 40.2382C34.4554 41.9468 35.849 43.3449 37.5791 43.3449C38.2927 43.3449 39.0063 43.095 39.5853 42.683V40.3327Z"
                          fill="white"></path>
                    <path d="M47.2665 36.5709V37.226H43.0791V39.86H46.8222V40.5151H43.0791V43.2841H47.4011V43.9392H42.3588V36.5844H47.2665V36.5709Z"
                          fill="white"></path>
                    <path d="M57.7415 38.4012C57.7415 39.2725 57.2299 39.8938 56.3682 40.0762C57.4453 40.2247 58.0781 40.9204 58.0781 41.9267C58.0781 43.1896 57.0952 43.9257 55.4257 43.9257H52.3222V36.5575H55.3988C56.8663 36.5575 57.7482 37.2396 57.7482 38.4012H57.7415ZM56.9943 38.4958C56.9943 37.6854 56.3951 37.2126 55.3584 37.2194H53.0425V39.806H55.3584C56.3951 39.806 56.9943 39.3333 56.9943 38.489V38.4958ZM57.3376 41.8524C57.3376 40.9676 56.6038 40.4544 55.3584 40.4544H53.0425V43.2774H55.3584C56.6038 43.2774 57.3376 42.7641 57.3376 41.8591V41.8524Z"
                          fill="white"></path>
                    <path d="M62.3457 41.3053V43.9257H61.6186V41.3053L58.7575 36.5709H59.5115L61.9889 40.5286L64.4124 36.5709H65.1664L62.3457 41.3053Z"
                          fill="white"></path>
                    <path d="M74.6794 40.3327H75.3189V43.0274C74.6188 43.615 73.6224 43.9932 72.6328 43.9932C70.5122 43.9932 68.8157 42.3183 68.8157 40.2382C68.8157 38.158 70.5257 36.5101 72.6665 36.5101C73.6763 36.5101 74.639 36.8883 75.3391 37.5097L74.9217 38.023C74.3226 37.4624 73.508 37.1517 72.6665 37.1517C70.9363 37.1517 69.5495 38.5295 69.5495 40.2382C69.5495 41.9468 70.9431 43.3449 72.6732 43.3449C73.3868 43.3449 74.1004 43.095 74.6794 42.683V40.3327Z"
                          fill="white"></path>
                    <path d="M78.1728 36.5712V43.9259H77.4458V36.5712H78.1728Z" fill="white"></path>
                    <path d="M85.0123 36.5643V37.2262H82.5887V43.9258H81.8617V37.2262H79.4381V36.5643H85.0123Z"
                          fill="white"></path>
                    <path d="M88.9173 37.1518C87.1939 37.1518 85.8206 38.5228 85.8206 40.2382C85.8206 41.9536 87.1939 43.3246 88.9173 43.3246C89.7386 43.3246 90.533 42.9869 91.1322 42.4332L91.5697 42.9059C90.8561 43.5678 89.88 44 88.8837 44C86.7765 44 85.0868 42.3251 85.0868 40.245C85.0868 38.1648 86.7832 36.5169 88.9038 36.5169C89.9002 36.5169 90.8629 36.9154 91.5563 37.5705L91.1254 38.077C90.5397 37.4962 89.7386 37.1585 88.9106 37.1585L88.9173 37.1518Z"
                          fill="white"></path>
                </svg>
                
            </svg>
        </g>
    </g>
    <defs>
        <clipPath id="SvgjsClipPath1305">
            <rect width="1000" height="1000" x="0" y="0" rx="150" ry="150"></rect>
        </clipPath>
    </defs>
</svg>
